<?xml version="1.0" encoding="UTF-8" standalone="no"?>
<!DOCTYPE svg PUBLIC "-//W3C//DTD SVG 1.1//EN" "http://www.w3.org/Graphics/SVG/1.1/DTD/svg11.dtd">
<svg width="100%" height="100%" viewBox="0 0 83 83" version="1.1" xmlns="http://www.w3.org/2000/svg" xmlns:xlink="http://www.w3.org/1999/xlink" xml:space="preserve" style="fill-rule:evenodd;clip-rule:evenodd;stroke-linecap:round;stroke-linejoin:round;stroke-miterlimit:1.41421;">
    <g transform="matrix(0.465604,0,0,0.465604,-115.981,-17.1848)">
        <g id="Aufgabenart--Kontur-0-8-">
            <g id="schreiben">
                <path id="Rahmen" d="M287.76,46.679C282.124,46.679 277.572,51.199 277.572,56.835L277.572,194.895C277.572,200.531 282.124,205.083 287.76,205.083L388.04,205.083C393.676,205.083 398.196,200.531 398.196,194.895L398.196,76.275L368.596,46.676L287.752,46.676L287.76,46.679Z" style="fill:white;fill-rule:nonzero;stroke-width:5.96px;stroke:black;"/>
                <path id="Ecke" d="M397.83,75.929L368.24,46.304L368.24,65.742C368.24,71.378 372.76,75.93 378.396,75.93L397.834,75.93L397.83,75.929Z" style="fill:white;fill-rule:nonzero;stroke-width:5.66px;stroke:black;"/>
                <g id="Linen">
                    <g id="path3684" transform="matrix(1,0,0,1,0,1.87928)">
                        <path d="M295.94,78.452L351.433,78.452" style="fill:white;fill-rule:nonzero;stroke-width:6.66px;stroke:rgb(102,102,102);"/>
                    </g>
                    <g id="path36841" transform="matrix(1.50268,0,0,1,-148.762,19.3841)">
                        <path d="M295.94,78.452L351.433,78.452" style="fill:white;fill-rule:nonzero;stroke-width:5.21px;stroke:rgb(102,102,102);"/>
                    </g>
                    <g id="path36842" transform="matrix(1.50268,0,0,1,-148.512,37.302)">
                        <path d="M295.94,78.452L351.433,78.452" style="fill:white;fill-rule:nonzero;stroke-width:5.21px;stroke:rgb(102,102,102);"/>
                    </g>
                    <g id="path36843" transform="matrix(1.50268,0,0,1,-149.032,56.2622)">
                        <path d="M295.94,78.452L351.433,78.452" style="fill:white;fill-rule:nonzero;stroke-width:5.21px;stroke:rgb(102,102,102);"/>
                    </g>
                    <g id="path36844" transform="matrix(1.50268,0,0,1,-149.032,74.3791)">
                        <path d="M295.94,78.452L351.433,78.452" style="fill:white;fill-rule:nonzero;stroke-width:5.21px;stroke:rgb(102,102,102);"/>
                    </g>
                    <g id="path36845" transform="matrix(1.50268,0,0,1,-149.032,92.8706)">
                        <path d="M295.94,78.452L344.234,78.095" style="fill:white;fill-rule:nonzero;stroke-width:5.21px;stroke:rgb(102,102,102);"/>
                    </g>
                    <path id="path3661" d="M295.94,62.01L351.433,62.01" style="fill:white;fill-rule:nonzero;stroke-width:6.66px;stroke:rgb(102,102,102);"/>
                </g>
                <g id="Stift" transform="matrix(-0.63797,0.0072005,0.0072005,0.63797,607.003,-328.517)">
                    <path d="M506.602,619.055C505.694,619.055 504.798,619.391 504.102,620.086L483.103,641.086C481.712,642.477 481.712,644.695 483.103,646.086L510.789,673.774C512.18,675.165 514.429,675.165 515.82,673.774L536.819,652.774C538.21,651.383 538.21,649.165 536.819,647.774L509.133,620.086C508.438,619.39 507.51,619.055 506.602,619.055ZM475.01,650.649C474.102,650.649 473.206,650.984 472.51,651.68L405.795,718.399C404.404,719.79 404.404,722.008 405.795,723.399L433.481,751.087C434.872,752.478 437.121,752.478 438.512,751.087L505.196,684.399C506.587,683.008 506.587,680.759 505.196,679.368L477.51,651.68C476.815,650.984 475.918,650.649 475.01,650.649L475.01,650.649ZM397.479,727.837C396.732,727.903 396.113,728.548 395.979,729.399L388.636,751.524L381.292,773.586C381.156,774.205 381.297,774.862 381.667,775.336C381.717,775.381 381.769,775.423 381.824,775.461C382.277,775.778 382.835,775.825 383.323,775.586L405.384,768.274L427.477,760.899C428.252,760.726 428.816,759.936 428.816,759.025C428.816,758.607 428.697,758.2 428.477,757.867L413.759,743.148L399.041,728.398C398.684,727.975 398.175,727.767 397.666,727.836C397.604,727.832 397.541,727.832 397.479,727.836L397.479,727.837Z" style="fill:black;fill-rule:nonzero;"/>
                    <path d="M505.976,609.248L505.348,609.292L504.719,609.366L504.09,609.47L503.463,609.605L502.838,609.771L502.219,609.969L501.605,610.199L501,610.46L500.404,610.753L499.821,611.077L499.251,611.432L498.699,611.817L498.164,612.231L497.649,612.673L497.247,613.056L476.074,634.23L475.694,634.629L475.256,635.138L474.846,635.666L474.463,636.212L474.11,636.774L473.787,637.351L473.493,637.941L473.23,638.541L472.998,639.152L472.796,639.771L472.626,640.396L472.486,641.028L472.479,641.068L471.871,641.199L471.247,641.365L470.627,641.563L470.013,641.792L469.408,642.054L468.812,642.347L468.229,642.671L467.659,643.026L467.106,643.411L466.572,643.826L466.057,644.267L465.655,644.65L398.766,711.543L398.386,711.942L397.948,712.451L397.538,712.979L397.156,713.525L396.802,714.087L396.478,714.664L396.185,715.254L395.922,715.855L395.69,716.465L395.488,717.084L395.318,717.71L395.193,718.274L395,718.315L394.482,718.452L393.974,718.611L393.481,718.792L393.002,718.993L392.537,719.214L392.09,719.452L391.658,719.706L391.242,719.976L390.843,720.261L390.46,720.559L390.095,720.869L389.747,721.19L389.415,721.522L389.099,721.865L388.8,722.216L388.517,722.576L388.25,722.945L387.999,723.322L387.764,723.707L387.544,724.098L387.341,724.496L387.152,724.9L386.98,725.311L386.823,725.727L386.682,726.148L386.557,726.574L386.448,727.005L386.355,727.439L386.434,726.989L379.318,748.427L371.976,770.485L371.792,771.105L371.65,771.736L371.577,772.115L371.49,772.759L371.437,773.402L371.419,774.043L371.436,774.68L371.485,775.314L371.569,775.946L371.686,776.574L371.837,777.198L372.023,777.817L372.245,778.432L372.504,779.041L372.8,779.643L373.136,780.236L373.512,780.819L373.753,781.147L374.228,781.743L374.747,782.301L375.308,782.817L375.608,783.072L376.184,783.505L376.807,783.912L377.449,784.274L378.118,784.597L378.809,784.875L379.521,785.109L380.25,785.296L380.992,785.434L381.745,785.522L382.503,785.559L383.263,785.546L384.021,785.481L384.773,785.365L385.514,785.198L386.242,784.983L386.95,784.72L386.886,784.749L408.483,777.59L430.227,770.332L430.172,770.346L430.715,770.18L431.243,769.99L431.756,769.776L432.251,769.541L432.727,769.286L433.184,769.013L433.622,768.723L434.041,768.417L434.439,768.098L434.818,767.766L435.178,767.422L435.519,767.067L435.839,766.704L436.142,766.33L436.427,765.948L436.694,765.559L436.942,765.163L437.174,764.759L437.388,764.348L437.585,763.932L437.765,763.511L437.929,763.082L438.076,762.649L438.206,762.211L438.319,761.767L438.324,761.744L438.546,761.707L439.176,761.569L439.801,761.4L440.42,761.2L441.031,760.969L441.633,760.707L442.225,760.414L442.804,760.091L443.37,759.737L443.92,759.353L444.452,758.94L444.966,758.499L445.368,758.117L512.227,691.254L512.609,690.851L513.05,690.338L513.463,689.805L513.846,689.255L514.2,688.69L514.524,688.11L514.816,687.519L515.078,686.917L515.309,686.306L515.509,685.687L515.678,685.062L515.816,684.432L515.821,684.399L515.854,684.394L516.484,684.256L517.109,684.087L517.728,683.887L518.339,683.656L518.941,683.394L519.532,683.101L520.112,682.778L520.678,682.424L521.227,682.04L521.76,681.627L522.274,681.186L522.676,680.804L543.848,659.63L544.228,659.231L544.666,658.722L545.076,658.194L545.459,657.648L545.812,657.086L546.136,656.509L546.429,655.919L546.692,655.319L546.925,654.708L547.126,654.089L547.296,653.464L547.436,652.832L547.544,652.196L547.622,651.557L547.668,650.916L547.684,650.274L547.668,649.632L547.622,648.991L547.544,648.352L547.436,647.716L547.296,647.085L547.126,646.459L546.925,645.84L546.692,645.229L546.429,644.629L546.136,644.039L545.812,643.462L545.459,642.9L545.076,642.354L544.666,641.826L544.228,641.317L543.849,640.918L515.984,613.051L515.568,612.657L515.037,612.204L514.488,611.784L513.924,611.396L513.347,611.042L512.759,610.72L512.162,610.432L511.557,610.176L510.948,609.952L510.333,609.759L509.716,609.597L509.096,609.466L508.474,609.364L507.85,609.292L507.226,609.248L506.602,609.234L505.976,609.248ZM397.952,727.826L398.046,727.835L398.139,727.851L398.231,727.872L398.321,727.899L398.411,727.933L398.498,727.972L398.583,728.016L398.666,728.066L398.747,728.122L398.825,728.183L398.9,728.25L398.973,728.322L399.041,728.398L413.759,743.148L428.477,757.867L428.517,757.931L428.555,757.995L428.59,758.062L428.623,758.13L428.653,758.199L428.681,758.27L428.706,758.341L428.729,758.414L428.749,758.488L428.767,758.563L428.782,758.638L428.794,758.714L428.804,758.791L428.811,758.869L428.815,758.947L428.816,759.025L428.815,759.11L428.81,759.194L428.802,759.278L428.79,759.36L428.776,759.441L428.759,759.521L428.739,759.6L428.716,759.678L428.69,759.754L428.662,759.828L428.63,759.901L428.597,759.973L428.56,760.042L428.522,760.109L428.481,760.175L428.437,760.239L428.391,760.3L428.343,760.359L428.293,760.416L428.241,760.47L428.187,760.522L428.131,760.571L428.073,760.617L428.013,760.661L427.952,760.702L427.888,760.74L427.824,760.774L427.757,760.806L427.689,760.834L427.62,760.859L427.549,760.881L427.477,760.899L405.384,768.274L383.323,775.586L383.231,775.627L383.137,775.662L383.043,775.69L382.947,775.712L382.851,775.727L382.754,775.735L382.657,775.737L382.56,775.732L382.464,775.721L382.369,775.703L382.274,775.679L382.18,775.648L382.088,775.611L381.998,775.567L381.91,775.517L381.824,775.461L381.744,775.401L381.667,775.336L381.601,775.245L381.539,775.15L381.483,775.052L381.433,774.95L381.389,774.845L381.35,774.737L381.317,774.627L381.29,774.515L381.269,774.402L381.253,774.287L381.244,774.171L381.241,774.054L381.245,773.937L381.254,773.819L381.27,773.702L381.292,773.586L388.636,751.524L395.979,729.399L395.993,729.32L396.01,729.242L396.029,729.165L396.051,729.09L396.076,729.017L396.103,728.944L396.133,728.874L396.165,728.805L396.199,728.738L396.236,728.673L396.274,728.609L396.315,728.548L396.358,728.489L396.403,728.431L396.45,728.376L396.499,728.323L396.55,728.273L396.602,728.224L396.656,728.179L396.711,728.135L396.768,728.095L396.827,728.057L396.887,728.021L396.948,727.989L397.011,727.959L397.075,727.932L397.14,727.909L397.206,727.888L397.273,727.87L397.34,727.856L397.409,727.844L397.479,727.837L397.479,727.836L397.573,727.833L397.666,727.836L397.762,727.826L397.857,727.823L397.952,727.826ZM379.306,766.627L379.512,766.535L379.642,766.487L379.306,766.627ZM475.18,650.653L475.35,650.664L475.518,650.684L475.686,650.712L475.852,650.748L476.017,650.791L476.179,650.843L476.34,650.903L476.498,650.972L476.653,651.048L476.805,651.132L476.954,651.225L477.099,651.326L477.24,651.436L477.377,651.554L477.51,651.68L505.196,679.368L505.322,679.501L505.441,679.638L505.551,679.78L505.652,679.926L505.746,680.076L505.832,680.229L505.909,680.386L505.978,680.545L506.04,680.707L506.093,680.871L506.137,681.037L506.174,681.204L506.203,681.373L506.223,681.543L506.235,681.713L506.239,681.883L506.235,682.054L506.223,682.224L506.203,682.394L506.174,682.563L506.137,682.73L506.093,682.896L506.04,683.06L505.978,683.222L505.909,683.381L505.832,683.537L505.746,683.691L505.652,683.84L505.551,683.987L505.441,684.129L505.322,684.266L505.196,684.399L438.512,751.087L438.379,751.213L438.242,751.332L438.1,751.442L437.954,751.543L437.804,751.637L437.651,751.723L437.494,751.8L437.335,751.87L437.173,751.931L437.009,751.984L436.843,752.029L436.676,752.065L436.507,752.094L436.337,752.114L436.167,752.126L435.997,752.13L435.826,752.126L435.656,752.114L435.486,752.094L435.317,752.065L435.15,752.029L434.984,751.984L434.82,751.931L434.658,751.87L434.499,751.8L434.343,751.723L434.189,751.637L434.04,751.543L433.894,751.442L433.752,751.332L433.614,751.213L433.481,751.087L405.795,723.399L405.669,723.266L405.551,723.129L405.441,722.987L405.339,722.842L405.245,722.693L405.159,722.54L405.082,722.385L405.013,722.227L404.952,722.066L404.899,721.903L404.854,721.739L404.817,721.572L404.789,721.405L404.768,721.237L404.756,721.068L404.752,720.899L404.756,720.73L404.768,720.561L404.789,720.393L404.817,720.226L404.854,720.06L404.899,719.895L404.952,719.732L405.013,719.572L405.082,719.413L405.159,719.258L405.245,719.105L405.339,718.956L405.441,718.811L405.551,718.669L405.669,718.532L405.795,718.399L472.51,651.68L472.643,651.554L472.78,651.436L472.921,651.327L473.066,651.225L473.215,651.133L473.367,651.048L473.523,650.972L473.681,650.904L473.841,650.844L474.004,650.792L474.168,650.748L474.334,650.712L474.502,650.684L474.671,650.665L474.84,650.653L475.01,650.649L475.01,650.649L475.18,650.653ZM397.563,718.009L397.218,718.021L397.157,718.023L397.154,718.023L397.096,718.025L397.331,718.001L397.563,718.009ZM506.772,619.059L506.943,619.071L507.113,619.09L507.283,619.118L507.451,619.154L507.618,619.198L507.784,619.25L507.947,619.31L508.108,619.378L508.266,619.454L508.421,619.539L508.572,619.631L508.719,619.733L508.862,619.842L509,619.96L509.133,620.086L536.819,647.774L536.945,647.907L537.064,648.044L537.174,648.186L537.275,648.331L537.369,648.48L537.455,648.633L537.532,648.788L537.601,648.947L537.663,649.107L537.716,649.27L537.76,649.435L537.797,649.601L537.826,649.768L537.846,649.936L537.858,650.105L537.862,650.274L537.858,650.443L537.846,650.612L537.826,650.78L537.797,650.947L537.76,651.114L537.716,651.278L537.663,651.441L537.601,651.602L537.532,651.76L537.455,651.915L537.369,652.068L537.275,652.217L537.174,652.362L537.064,652.504L536.945,652.641L536.819,652.774L515.82,673.774L515.687,673.9L515.55,674.019L515.408,674.129L515.262,674.23L515.112,674.324L514.958,674.41L514.802,674.487L514.643,674.557L514.481,674.618L514.317,674.671L514.151,674.716L513.984,674.752L513.815,674.781L513.645,674.801L513.475,674.813L513.305,674.817L513.134,674.813L512.964,674.801L512.794,674.781L512.625,674.752L512.458,674.716L512.292,674.671L512.128,674.618L511.966,674.557L511.807,674.487L511.651,674.41L511.497,674.324L511.348,674.23L511.202,674.129L511.06,674.019L510.922,673.9L510.789,673.774L483.103,646.086L482.977,645.953L482.859,645.816L482.749,645.674L482.647,645.529L482.553,645.38L482.467,645.227L482.39,645.072L482.321,644.914L482.26,644.753L482.207,644.59L482.162,644.426L482.125,644.259L482.097,644.092L482.076,643.924L482.064,643.755L482.06,643.586L482.064,643.417L482.076,643.248L482.097,643.08L482.125,642.913L482.162,642.747L482.207,642.582L482.26,642.419L482.321,642.259L482.39,642.1L482.467,641.945L482.553,641.792L482.647,641.643L482.749,641.498L482.859,641.356L482.977,641.219L483.103,641.086L504.102,620.086L504.235,619.96L504.372,619.842L504.513,619.733L504.658,619.631L504.807,619.539L504.959,619.454L505.115,619.378L505.273,619.31L505.433,619.25L505.596,619.198L505.76,619.154L505.926,619.118L506.094,619.09L506.263,619.071L506.432,619.059L506.602,619.055L506.772,619.059Z" style="fill:white;"/>
                </g>
            </g>
        </g>
    </g>
</svg>